<svg id="Capa_1" enable-background="new 0 0 512 512" height="512" viewBox="0 0 512 512" width="512" xmlns="http://www.w3.org/2000/svg"><g><path d="m379.871 412.903v-35.824c0-29.008-15.22-55.888-40.093-70.812l-83.778-50.267-57.806 34.684-33.194 86.395v54.588z" fill="#faf5dc"/><path d="m198.194 412.903v-122.219l-25.971 15.583c-24.873 14.924-40.093 41.805-40.093 70.812v35.824z" fill="#f5ebcd"/><path d="m159.667 16.516v118.405c0 29.008 15.22 55.888 40.093 70.812h109.907l55.708-24.056c9.329-13.558 14.496-29.762 14.496-46.757v-85.372z" fill="#faf5dc"/><path d="m132.129 16.516v118.405c0 16.968 5.208 33.208 14.509 46.754l51.555 16.825v-124.177c0-13.682 11.092-24.774 24.774-24.774h156.903v-33.033z" fill="#f5ebcd"/><path d="m274.598 370.794c-6.271-2.508-10.34-8.564-10.34-15.318v-95.08c0-5.801 3.044-11.178 8.019-14.162l67.501-40.501c10.295-6.177 19.005-14.48 25.597-24.056h-167.181l-10.694 13.156 10.693 26.483 41.53 24.918c4.975 2.985 8.019 8.361 8.019 14.162v95.08c0 6.753-4.112 12.827-10.382 15.335l-39.166 15.666-17.194 85.856 198.871-9.882v-49.548s-75.355-30.142-105.273-42.109z" fill="#d19a6e"/><path d="m198.194 437.677v-51.2l-66.065 26.426v74.323h247.742v-24.774h-156.903c-13.683 0-24.774-11.092-24.774-24.775z" fill="#c38c66"/><path d="m388.129 478.968h-214.71c-4.561 0-8.258 3.697-8.258 8.258v8.258c0 4.56 3.697 8.258 8.258 8.258h214.71c4.56 0 8.258-3.698 8.258-8.258v-8.258c0-4.561-3.697-8.258-8.258-8.258z" fill="#f6d190"/><path d="m189.935 495.484c-9.122 0-16.516-7.395-16.516-16.516h-49.548c-4.561 0-8.258 3.697-8.258 8.258v16.516c0 4.561 3.697 8.258 8.258 8.258h264.258c4.561 0 8.258-3.697 8.258-8.258v-8.258z" fill="#ecbd83"/><path d="m172.222 205.733 25.971 15.583v-39.639h-51.553c6.593 9.577 15.287 17.879 25.582 24.056z" fill="#c38c66"/><path d="m388.129 0h-214.71c-4.561 0-8.258 3.697-8.258 8.258v8.258c0 4.56 3.697 8.258 8.258 8.258h214.71c4.56 0 8.258-3.698 8.258-8.258v-8.258c0-4.561-3.697-8.258-8.258-8.258z" fill="#f6d190"/><path d="m189.935 16.516c-9.122 0-16.516-7.395-16.516-16.516h-49.548c-4.561 0-8.258 3.697-8.258 8.258v16.516c0 4.561 3.697 8.258 8.258 8.258h264.258c4.561 0 8.258-3.697 8.258-8.258v-8.258z" fill="#ecbd83"/></g></svg>